<svg width="18" height="18" viewBox="0 0 18 18" fill="none" xmlns="http://www.w3.org/2000/svg">
<g clip-path="url(#clip0_1_666)">
<path fill-rule="evenodd" clip-rule="evenodd" d="M5.14447 0.937506C5.16678 0.937509 5.18939 0.937512 5.21232 0.937512L5.24006 0.937511C5.50364 0.937493 5.67324 0.937481 5.83906 0.952987C6.51546 1.01624 7.15887 1.27148 7.69398 1.68751H12.375C12.3897 1.68751 12.4042 1.68751 12.4184 1.68751C12.7249 1.68746 12.9337 1.68742 13.1171 1.71157C14.3792 1.87773 15.3723 2.87084 15.5385 4.13291C15.5447 4.18048 15.5493 4.22975 15.5528 4.28198C15.7609 4.37684 15.9536 4.49951 16.1308 4.65889C16.2046 4.72524 16.2748 4.79545 16.3411 4.86923C16.7373 5.30974 16.9066 5.84594 16.986 6.47701C17.0625 7.08592 17.0625 7.85555 17.0625 8.81025V10.5423C17.0625 11.9206 17.0625 13.0124 16.9477 13.8668C16.8294 14.7461 16.5804 15.4578 16.0191 16.0191C15.4578 16.5804 14.7461 16.8294 13.8668 16.9477C13.0124 17.0625 11.9206 17.0625 10.5423 17.0625H7.4577C6.07938 17.0625 4.98766 17.0625 4.13324 16.9477C3.25393 16.8294 2.54222 16.5804 1.98094 16.0191C1.41967 15.4578 1.17058 14.7461 1.05236 13.8668C0.937491 13.0124 0.9375 11.9206 0.937512 10.5423L0.937512 5.21232C0.937512 5.18939 0.937509 5.16678 0.937506 5.14446C0.937422 4.54753 0.937368 4.16764 0.999277 3.83951C1.27118 2.39841 2.39841 1.27118 3.83951 0.999277C4.16764 0.937368 4.54753 0.937422 5.14447 0.937506ZM14.3605 3.99576C14.1671 3.37718 13.6299 2.91379 12.9703 2.82695C12.8698 2.81373 12.7412 2.81251 12.375 2.81251H8.8585C9.34067 3.29181 9.55945 3.49199 9.80758 3.63004C9.97109 3.72101 10.1445 3.79285 10.3245 3.84414C10.6345 3.9325 10.9743 3.93751 11.8713 3.93751L12.1898 3.93751C13.0615 3.9375 13.7789 3.93749 14.3605 3.99576ZM5.21232 2.06251C4.52484 2.06251 4.25905 2.06497 4.04809 2.10477C3.06208 2.29081 2.29081 3.06208 2.10477 4.04809C2.06497 4.25905 2.06251 4.52484 2.06251 5.21232V10.5C2.06251 11.9301 2.06371 12.9461 2.16733 13.7169C2.26878 14.4714 2.45903 14.9062 2.77644 15.2236C3.09385 15.541 3.52858 15.7312 4.28315 15.8327C5.0539 15.9363 6.0699 15.9375 7.50001 15.9375H10.5C11.9301 15.9375 12.9461 15.9363 13.7169 15.8327C14.4714 15.7312 14.9062 15.541 15.2236 15.2236C15.541 14.9062 15.7312 14.4714 15.8327 13.7169C15.9363 12.9461 15.9375 11.9301 15.9375 10.5V8.84844C15.9375 7.84655 15.9365 7.14788 15.8698 6.61734C15.8048 6.10086 15.6856 5.82267 15.5047 5.62154C15.4649 5.57728 15.4227 5.53515 15.3785 5.49534C15.1774 5.31444 14.8992 5.19519 14.3827 5.13026C13.8521 5.06356 13.1535 5.06251 12.1516 5.06251H11.8713C11.8434 5.06251 11.8159 5.06252 11.7886 5.06252C11.0027 5.06268 10.4958 5.06279 10.0161 4.92605C9.75309 4.85108 9.4996 4.74608 9.26062 4.61313C8.82472 4.37061 8.46638 4.01212 7.91073 3.45625C7.89149 3.43699 7.872 3.41749 7.85227 3.39776L7.43958 2.98507C7.22712 2.77261 7.14583 2.69213 7.06298 2.62345C6.68552 2.31055 6.22248 2.11875 5.73432 2.0731C5.62717 2.06308 5.51279 2.06251 5.21232 2.06251ZM9.18751 7.50001C9.18751 7.18935 9.43935 6.93751 9.75001 6.93751H13.5C13.8107 6.93751 14.0625 7.18935 14.0625 7.50001C14.0625 7.81067 13.8107 8.06251 13.5 8.06251H9.75001C9.43935 8.06251 9.18751 7.81067 9.18751 7.50001Z" fill="white"/>
</g>
<defs>
<clipPath id="clip0_1_666">
<rect width="18" height="18" fill="white"/>
</clipPath>
</defs>
</svg>
