<svg width="209" height="147" viewBox="0 0 209 147" fill="none" xmlns="http://www.w3.org/2000/svg">
<g filter="url(#filter0_d_1_863)">
<rect x="12" y="12" width="184.5" height="123" rx="12" fill="white"/>
<path d="M65.4011 56.093C64.0296 54.9305 62.9354 54.6133 61.1112 54.6133H33.2876L51.5172 90.4308C52.2188 91.8086 53.1372 92.3864 54.437 92.3864H78.1899C79.293 92.3864 79.9509 91.8139 80.3981 90.8122L83.654 83.5168L87.5237 74.8467L65.4011 56.093ZM69.9988 66.0298C70.1894 66.0045 70.3461 65.9731 70.5386 66.0001C70.7934 66.0354 70.8058 66.4068 70.736 66.5963C70.6232 66.9021 70.264 67.3116 69.988 67.4832C69.8629 67.5607 69.7268 67.5003 69.5869 67.508C69.3716 67.52 69.2414 67.2892 69.1724 67.1188C69.0258 66.7686 69.2592 67.3328 69.1724 67.1188C69.0109 66.7346 69.6314 66.0668 69.9988 66.0298ZM68.2679 73.7135C68.2767 73.3343 68.3717 72.9725 68.3813 72.5877C68.3972 71.9489 68.5138 71.3778 68.5583 70.7592C68.5835 70.4067 68.6207 69.9492 68.8106 69.651C68.9735 69.3951 69.083 69.1542 69.3802 69.0262C69.5015 68.9741 69.6707 68.9666 69.8013 68.9796C70.0651 69.0061 69.8914 69.196 70.0028 69.3183C70.015 69.2989 70.0311 69.2947 70.0514 69.3055C70.0522 69.3435 70.0529 69.3816 70.0529 69.42C70.1835 69.4319 70.0425 69.6023 70.0486 69.6975C70.0715 69.9123 70.0507 70.1144 69.9494 70.3176C69.9748 70.3244 70.0012 70.3266 70.0273 70.3241C70.028 70.3311 70.0084 70.3887 70.0044 70.3937C69.9293 70.4429 69.9419 70.4627 69.952 70.6104C69.9576 70.6932 70.0051 70.8666 69.9427 70.9326C69.9319 70.9438 69.9297 71.1736 69.9375 71.2112C69.9487 71.2664 69.9293 71.6251 69.9346 71.6323C69.9497 71.6273 69.9628 71.6175 69.9716 71.6043C69.9573 71.5998 69.9932 72.0719 69.959 72.1106C69.9096 72.1666 69.8485 72.2277 69.8629 72.312C69.8689 72.3479 69.9892 72.5973 69.9527 72.6152C69.9178 72.6353 69.891 72.5403 69.8752 72.5403C69.8221 72.5403 69.966 72.7424 69.9538 72.7596C69.926 72.7979 69.8466 72.625 69.8139 72.7697C69.7828 72.908 69.8046 73.0624 69.8132 73.2022C69.8209 73.3285 69.808 73.439 69.8029 73.5651C69.794 73.7727 69.8722 74.0326 69.776 74.2277C69.5557 74.676 68.5643 75.3774 68.2362 74.7025C68.2734 74.7823 68.3342 74.9154 68.2307 74.6931C68.2062 74.639 68.2128 74.6529 68.228 74.6845C68.1027 74.394 68.2607 74.0148 68.2678 73.7135H68.2679ZM60.6053 73.1996C60.5949 73.1283 61.114 72.9594 61.1823 72.94C61.2835 72.9113 61.4171 72.9304 61.5173 72.9527C61.7426 73.0035 61.7103 73.0952 61.7747 73.2713C61.8456 73.464 61.8627 73.4998 61.8201 73.7135C61.7842 73.8936 61.7336 74.0547 61.5636 74.1502C61.3651 74.3105 61.1655 74.4743 60.968 74.6327C60.7731 74.7891 60.6111 74.9827 60.4917 75.2022C60.4216 75.3296 60.4331 75.4706 60.3793 75.5904C60.2458 75.8872 60.2635 76.1961 60.2253 76.5046C60.141 77.1791 60.2089 77.8652 60.1214 78.5346C60.0528 79.0585 59.481 79.725 58.8936 79.6835C58.4238 79.6505 58.4214 79.0794 58.4309 78.7252C58.4366 78.5164 58.4776 78.3216 58.4992 78.1154C58.5218 77.9014 58.4687 77.7523 58.517 77.5348C58.5471 77.3998 58.4802 77.2498 58.5078 77.0948C58.5226 77.0113 58.5251 76.9493 58.5427 76.8713C58.6009 76.6087 58.6115 76.3306 58.6321 76.0633C58.678 75.4598 58.6148 74.8247 58.7793 74.2392C58.854 73.9741 59.0618 73.7902 59.2762 73.6288C59.382 73.5569 59.6867 73.5464 59.7518 73.4491C60.0183 73.5191 60.4023 73.2668 60.6494 73.2081C60.6428 73.1801 60.6279 73.1775 60.6052 73.1995L60.6053 73.1996ZM54.0348 77.0167C54.0009 77.1261 53.9427 77.2286 53.9293 77.344C53.9153 77.4651 53.9534 77.5545 53.9089 77.6758C53.8685 77.7869 53.8441 77.8724 53.8347 77.9908C53.8161 78.2318 53.7316 78.4607 53.7004 78.7002C53.6896 78.7829 53.6522 78.9303 53.7023 79.0078C53.7472 79.0771 53.8058 79.1156 53.7887 79.2107C53.7405 79.4784 53.5943 79.7019 53.5427 79.9648C53.5141 80.109 53.4188 80.4823 53.4919 80.6139C53.5632 80.742 53.4292 81.0383 53.3772 81.2091C53.2581 81.6029 53.1906 82.0847 53.1662 82.4936C53.1354 83.0117 53.0147 83.5037 52.9781 84.0187C52.9306 84.6859 52.8782 85.4227 52.7265 86.0758C52.6638 86.3462 52.5591 86.6642 52.3074 86.8149C52.0615 86.9626 51.6763 86.9641 51.4801 86.7393C51.1921 86.4092 51.1647 85.8431 51.0774 85.4355C50.9629 84.8996 50.9395 84.3488 50.8144 83.8144C50.7691 83.6197 50.8055 83.287 50.6727 83.1304C50.6282 83.0779 50.5844 82.794 50.5765 82.7188C50.5618 82.5767 50.6014 82.4536 50.5728 82.3033C50.5458 82.1617 50.5065 82.0259 50.4719 81.8868C50.3551 81.4135 50.2839 80.8754 50.2327 80.3892C50.1821 79.911 50.0693 79.4483 50.0274 78.9653C49.9801 78.4194 49.8493 77.8898 49.7903 77.345C49.7402 76.8851 49.7529 76.3809 49.5781 75.9465C49.5284 75.8231 49.4701 75.7019 49.469 75.5657C49.4686 75.5225 49.5264 75.38 49.5062 75.3394C49.462 75.2529 49.3796 75.3753 49.3698 75.2442C49.3407 74.8375 48.9302 75.3543 48.967 75.5233C48.8401 75.417 48.8646 75.6553 48.8661 75.7179C48.8689 75.8256 48.7362 75.9644 48.6924 76.0666C48.5251 76.4579 48.4631 76.9023 48.3043 77.3066C48.1688 77.6511 48.0272 78.0326 47.7277 78.2687C47.4241 78.5078 46.9656 78.4346 46.7781 78.0796C46.5808 77.7052 46.8549 77.2573 46.9714 76.9023C47.1114 76.4768 47.2082 76.0185 47.407 75.6157C47.6057 75.2134 47.7132 74.7398 47.8552 74.3142C48.105 73.5676 48.3622 72.814 48.577 72.0569C48.7566 71.4237 49.1469 70.4706 49.9703 70.937C50.3628 71.1594 50.4033 71.6043 50.4745 72.013C50.5569 72.4881 50.6318 72.9631 50.7153 73.4379C50.823 74.0507 50.9306 74.6082 50.9899 75.2323C51.0166 75.5132 51.1109 75.7799 51.1977 76.0461C51.2682 76.2609 51.2815 76.5174 51.3658 76.7225C51.4196 76.8534 51.391 77.0139 51.4278 77.1679C51.4823 77.3965 51.4949 77.6243 51.5687 77.8491C51.6482 78.0911 51.4954 78.3156 51.575 78.5365C51.6422 78.7218 51.7688 78.9914 51.725 79.1902C51.6834 79.3799 51.7692 79.543 51.7613 79.7395C51.7547 79.9107 51.8804 80.0107 51.8355 80.2012C51.7959 80.3787 52.0066 80.4107 52.0545 80.2119C52.0897 80.0658 52.0953 79.9125 52.1012 79.763C52.1184 79.3323 52.1873 78.899 52.2697 78.476C52.493 77.3264 52.6462 76.1658 52.8756 75.0165C53.3153 72.8163 53.9642 70.6816 54.517 68.5161C54.6387 68.0399 54.8558 67.5947 55.0036 67.124C55.178 66.5683 55.3909 66.025 55.5917 65.4787C56.0114 64.3375 56.4213 63.1945 56.857 62.0597C57.1545 61.2844 57.5656 60.2272 58.5408 60.1634C59.3715 60.109 60.016 61.0312 59.77 61.8068C59.705 62.0116 59.5538 62.1579 59.4457 62.3357C59.4161 62.3845 59.4265 62.452 59.412 62.5065C59.3815 62.6206 59.324 62.5844 59.2469 62.6512C58.9266 62.9286 58.596 63.234 58.3648 63.5955C57.8717 64.3667 57.5905 65.2251 57.189 66.0507C57.0729 66.289 57.0625 66.5571 56.9504 66.8022C56.8615 66.9964 56.7248 67.1774 56.6691 67.3849C56.5438 67.8552 56.3103 68.2945 56.1757 68.7614C56.094 69.0453 56.0989 69.3321 55.9553 69.6006C55.9056 69.686 55.9515 69.7874 55.9179 69.8769C55.8588 69.9321 55.8272 70.0339 55.8046 70.1085C55.6707 70.5537 55.4996 71.0038 55.4715 71.4719C55.4548 71.7475 55.4097 71.8574 55.2655 72.0767C55.1593 72.2378 55.1515 72.4597 55.0722 72.6353C54.8636 73.0982 54.7312 73.6012 54.5924 74.089C54.5221 74.3362 54.4922 74.6021 54.4463 74.8546C54.4065 75.0725 54.3264 75.2727 54.3249 75.4968C54.323 75.7309 54.2577 75.8406 54.1776 76.0484C54.1056 76.2355 54.1717 76.4388 54.1216 76.6282C54.1427 76.6018 54.1519 76.604 54.0982 76.7117C53.9984 76.7979 54.0678 76.9101 54.0348 77.0167ZM57.3768 75.772C57.4595 75.9943 57.2778 76.3471 57.2821 76.5771C57.287 76.8297 57.2243 77.1133 57.1979 77.3673C57.1653 77.6835 57.1129 77.9864 57.0698 78.3045C57.0295 78.6044 57.0136 78.9049 56.978 79.2047C56.9446 79.4844 56.9687 79.7936 56.8996 80.0647C56.854 80.2437 56.7864 80.4417 56.7913 80.6281C56.7934 80.7214 56.8498 80.624 56.8959 80.6482C56.9556 80.68 56.825 80.9116 56.7831 80.755C56.7505 80.7837 56.7687 80.8589 56.7263 80.8766C56.6354 80.9142 56.6146 80.8934 56.5301 80.9891C56.4028 81.133 56.1286 81.2879 55.9527 81.3647C55.3561 81.6258 55.3686 80.8332 55.3546 80.498C55.3231 79.7436 55.4941 78.9436 55.4723 78.2064C55.4663 78.0126 55.5145 77.8103 55.5401 77.6184C55.5645 77.4378 55.5372 77.2901 55.5372 77.1212C55.5375 76.7405 55.5772 76.208 55.7278 75.8664C55.9319 75.3916 56.2251 74.9773 56.7382 74.82C56.9071 74.7678 57.1438 74.7617 57.2472 74.936C57.2975 75.0202 57.3008 75.4069 57.4276 75.4047C57.4288 75.4166 57.422 75.4219 57.4136 75.4234C57.3834 75.4416 57.3074 75.442 57.3015 75.5083C57.2933 75.6068 57.3441 75.6844 57.3768 75.772ZM56.9753 72.8386C56.8866 72.8513 56.5612 72.8822 56.5516 72.7356C56.546 72.65 56.4362 72.5649 56.4287 72.4414C56.4206 72.308 56.4622 72.1741 56.5107 72.0511C56.6432 71.7168 56.8488 71.6188 57.1014 71.4009C57.2543 71.2693 57.6462 71.012 57.8569 71.1563C57.9719 71.2354 58.1619 71.5684 58.0799 71.7113C58.0732 71.7228 58.1431 71.602 58.0799 71.7113C58.0131 71.8257 58.0053 71.9906 57.9419 72.0945C57.8342 72.2706 57.6889 72.371 57.5326 72.494C57.3679 72.6238 57.1894 72.8077 56.9753 72.8386ZM79.1079 72.3509C78.6887 72.6236 78.1985 72.7837 77.7254 72.9333C76.6702 73.2662 75.7143 73.699 74.7373 74.2199C73.7579 74.7419 72.7526 75.2164 71.8012 75.7902C70.9233 76.3198 70.0491 76.8459 69.159 77.3557C68.7768 77.5747 68.4578 77.8652 68.0714 78.0792C67.8467 78.2038 67.6229 78.3529 67.4266 78.5234C67.2644 78.6641 67.0174 78.809 66.8805 78.9657C66.6229 79.2602 66.8894 79.6769 66.7401 79.9852C66.6931 80.0822 66.7347 80.0509 66.7703 80.1146C66.8089 80.1844 66.7406 80.2854 66.7209 80.3477C66.6659 80.5227 66.7083 80.8761 66.7142 81.0656C66.7195 81.2335 66.7464 81.3953 66.7394 81.5642C66.7328 81.7327 66.6425 81.9203 66.7246 82.0837C66.7528 82.3045 66.66 82.521 66.6708 82.7422C66.6819 82.9738 66.6997 83.1916 66.6964 83.4254C66.6949 83.5377 66.7038 83.6521 66.749 83.7566C66.7117 83.7982 66.646 83.8315 66.6233 83.8856C66.5594 84.0392 66.7134 84.0422 66.7223 84.1369C66.7012 84.1698 66.6682 84.1829 66.624 84.1765C66.6857 84.2853 66.7513 84.4192 66.686 84.5308C66.6381 84.612 66.5835 84.6934 66.6573 84.7821C66.6255 84.8672 66.7888 84.9346 66.7516 85.0133C66.7239 85.073 66.6685 85.1229 66.6448 85.1833C66.5999 85.2967 66.7825 85.3243 66.673 85.4246C66.5988 85.4929 66.6675 85.5466 66.7167 85.6003C66.808 85.6994 66.6764 85.7099 66.6898 85.8259C66.716 86.0555 66.8637 86.2608 66.8604 86.4961C66.8571 86.7276 66.6771 86.9123 66.8927 87.061C67.0055 87.1385 67.1298 87.7483 66.877 87.6707C66.9955 87.7069 66.8682 87.8639 66.8805 87.9404C66.9012 88.0706 67.1483 88.0414 67.1569 88.2164C67.1609 88.301 67.0811 88.3524 67.0134 88.3785C67.0404 88.4575 67.0652 88.5374 67.1031 88.6121C67.1532 88.7119 67.2581 88.8474 67.1869 88.9798C67.1635 89.0228 67.1131 89.0375 67.1268 89.0983C67.1612 89.2479 67.1005 89.1807 67.0385 89.3314C66.9547 89.536 66.7453 89.6834 66.5458 89.7598C66.0841 89.9373 65.571 89.7192 65.3409 89.2911C65.1053 88.8533 65.1788 88.3022 65.196 87.8247C65.2178 87.202 65.262 86.5804 65.2667 85.9572C65.2745 84.9666 65.3342 83.9587 65.2901 82.966C65.2809 82.3911 65.2797 81.8161 65.2864 81.2413C65.2899 80.9533 65.2963 80.6654 65.3054 80.3776C65.3082 80.2814 65.3922 80.0322 65.2256 80.0941C64.7647 80.2653 64.3418 80.7133 63.9699 81.0212C62.7636 82.0202 61.5631 83.0245 60.3252 83.9867C59.9315 84.2928 59.5863 84.6408 59.2387 84.9969C58.8657 85.3784 58.4257 85.6961 58.0755 86.0963C57.746 86.4726 57.4068 86.8291 57.0647 87.1934C56.7021 87.5797 56.366 88.0459 55.9497 88.3745C55.7865 88.4952 55.6299 88.6306 55.4933 88.7813C55.3675 88.9196 55.0548 88.948 54.8711 88.9189C54.4585 88.8536 54.0777 88.4672 54.1168 88.0317C54.1535 87.6226 54.4952 87.2953 54.7658 87.02C55.1653 86.6131 55.5623 86.2066 55.9843 85.823C57.6112 84.3425 59.3036 82.9321 61.0161 81.5541C61.8924 80.8489 62.8282 80.2261 63.7265 79.55C64.184 79.2059 64.6307 78.8489 65.1008 78.5215C65.3732 78.3317 65.3316 77.9249 65.3143 77.625C65.3002 77.379 64.8597 77.7122 64.7631 77.8115C64.6783 77.8988 64.3469 77.9901 64.2318 78.0148C63.9703 78.071 63.6549 78.149 63.3881 78.1247C63.1336 78.102 62.5889 77.9033 62.4979 77.6175C62.4193 77.3696 62.3039 77.1249 62.317 76.858C62.3296 76.604 62.3573 76.3508 62.3573 76.0965C62.3573 75.8726 62.285 75.6556 62.2927 75.4341C62.3018 75.1742 62.3603 74.9192 62.3711 74.6584C62.3912 74.1584 62.4628 73.6315 62.6809 73.1761C62.9823 72.3552 63.5383 71.5912 64.3741 71.2679C64.7491 71.1229 65.168 71.1873 65.0734 71.6747C64.9988 72.0585 64.735 72.248 64.5395 72.5537C64.5309 72.647 64.4279 72.7118 64.3814 72.7842C64.3191 72.8815 64.2783 72.99 64.2407 73.0985C64.1744 73.2925 64.0719 73.4524 64.034 73.6549C64.0033 73.8208 63.9113 73.9731 63.8945 74.1404C63.873 74.3594 63.9095 74.5741 63.8859 74.8002C63.8409 75.2421 63.6089 76.0979 64.0167 76.4327C64.2704 76.6413 64.6805 76.4824 64.8868 76.2848C65.157 76.0256 65.3094 75.6285 65.3272 75.2573C65.3599 74.6313 65.5369 74.0207 65.542 73.3928C65.5472 72.7659 65.621 72.139 65.6541 71.5136C65.6815 70.9998 65.8378 70.5302 66.3806 70.3845C66.9116 70.242 67.2307 70.5996 67.2255 71.1022C67.2162 71.9746 67.08 72.8348 67.0266 73.7094C66.9513 74.9355 66.8304 76.1282 66.8372 77.3618C66.9409 77.4509 67.8841 76.7346 67.9951 76.6602C68.6191 76.244 69.2526 75.8429 69.8914 75.4498C70.8666 74.9948 71.7404 74.3541 72.7003 73.8705C73.1823 73.6225 73.642 73.3343 74.1125 73.0653C74.2464 72.989 75.147 72.5903 74.8676 72.4232C74.498 72.202 74.549 71.6277 74.5808 71.2683C74.6234 70.7902 74.5949 70.3136 74.6035 69.837C74.6112 69.3935 75.0506 67.8788 74.1307 68.1298C73.9381 68.1823 73.8042 68.305 73.661 68.4385C73.5297 68.5612 73.4911 68.7763 73.2758 68.8017C73.2138 68.9349 73.3006 68.9193 73.1552 69.0543C73.1964 69.1706 73.0628 69.4335 73.035 69.5572C73.016 69.6416 73.0677 69.7124 72.9841 69.7579C72.9095 69.7986 72.9104 69.8276 72.9727 69.8985C73.0836 70.0248 72.8533 69.9947 72.8884 70.1118C72.9481 70.3101 72.9122 70.3414 72.8362 70.5175C72.7667 70.6778 72.9163 70.7845 72.927 70.9382C72.9266 70.9323 72.7971 70.9158 72.7971 70.9151C72.7664 71.1117 72.7044 71.4207 72.7693 71.6125C72.7897 71.6724 72.8514 71.7545 72.8138 71.8217C72.7834 71.8761 72.7344 71.9515 72.7637 72.0178C72.7979 72.095 72.8736 72.1174 72.8287 72.2109C72.8013 72.2688 72.7229 72.3479 72.7445 72.4202C72.7719 72.5126 72.7501 72.5973 72.7615 72.6906C72.7712 72.7678 72.6614 72.8065 72.6453 72.877C72.608 73.0422 72.6116 73.0914 72.464 73.2223C72.363 73.3119 72.2707 73.396 72.1493 73.458C71.9067 73.5818 71.5316 73.6754 71.3034 73.471C71.0043 73.203 71.1452 72.5343 71.1723 72.1871C71.2191 71.5856 71.2318 70.9848 71.2651 70.3831C71.3116 69.5488 71.1538 68.2341 72.0699 67.812C72.4116 67.6546 72.8165 67.6333 73.1819 67.7058C73.5203 67.8463 73.8724 67.403 74.0588 67.1837C74.4472 66.7261 75.6008 65.9628 76.0368 66.8018C76.1202 66.9621 76.1359 67.1475 76.1748 67.3216C76.196 67.4163 76.2238 67.5096 76.266 67.5972C76.2075 67.6412 76.1429 67.6949 76.1389 67.7751C76.1344 67.8617 76.3187 68.4501 76.2379 68.5038C76.0802 68.6083 76.1621 68.7182 76.1475 68.9102C76.1331 69.0938 76.0289 69.4309 76.1407 69.5957C76.2037 69.689 76.1399 69.7058 76.1195 69.8106C76.0984 69.9198 76.1878 70.0413 76.1829 70.1564C76.1748 70.3442 76.236 70.6753 76.1407 70.8432C76.1336 70.968 76.3021 71.1195 76.2279 71.2C76.1485 71.2858 76.3788 71.4793 76.4357 71.5588C76.6423 71.8485 77.4453 71.3092 77.6408 71.2026C78.0476 70.9811 78.5253 70.6701 79.0093 70.7051C79.4975 70.7401 79.6152 70.8654 79.813 71.3164C79.7915 71.7113 79.4219 72.1468 79.1079 72.3509Z" fill="#DF173B"/>
<path d="M146.964 74.0586V75.6451H148.266V74.0586H146.964ZM107.429 77.1558C105.013 77.1558 103.792 78.4899 102.915 79.9045V77.4754H101.614V91.0878H102.915V83.2411C102.915 80.4919 104.827 78.3568 107.244 78.3568C109.661 78.3568 111.201 80.0916 111.201 82.9207V91.0878H112.502V83.1611C112.502 80.1183 114.494 78.3568 116.777 78.3568C119.274 78.3568 120.787 80.0651 120.787 83.0008V91.0878H122.089V82.8405C122.088 79.4247 120.096 77.1556 116.883 77.1556C114.334 77.1556 112.874 78.5699 111.997 80.0909C111.254 78.5165 109.793 77.1556 107.429 77.1556V77.1558ZM130.025 77.1558C126.361 77.1558 123.598 80.305 123.598 84.255V84.3081C123.598 88.552 126.679 91.4075 130.238 91.4075C132.841 91.4075 134.46 90.3397 135.841 88.8451L134.939 88.0447C133.823 89.2458 132.389 90.1794 130.291 90.1794C127.635 90.1794 125.219 88.2049 124.98 84.815H136.213C136.239 84.6013 136.239 84.5214 136.239 84.2811C136.239 80.2514 133.823 77.1556 130.025 77.1556V77.1558ZM157.025 77.1558C153.148 77.1558 150.12 80.4654 150.12 84.2819V84.335C150.12 88.1516 153.121 91.4082 157.025 91.4082C159.522 91.4082 161.168 90.2871 162.548 88.7125L161.645 87.9121C160.504 89.193 159.017 90.1801 157.105 90.1801C153.998 90.1801 151.528 87.5648 151.528 84.2819V84.228C151.528 80.9721 153.918 78.383 156.998 78.383C159.017 78.383 160.344 79.4244 161.513 80.6255L162.442 79.6648C161.168 78.3301 159.575 77.1556 157.025 77.1556V77.1558ZM94.0653 77.262C92.2062 77.262 90.7455 77.7428 89.2583 78.4368L89.7365 79.5847C90.9847 78.944 92.3391 78.4901 93.9855 78.4901C96.7741 78.4901 98.4468 79.9049 98.4468 82.6541H93.9588C90.453 82.6541 88.0371 84.2549 88.0371 87.084V87.1378C88.0371 89.9672 90.7461 91.4082 93.2687 91.4082C95.8446 91.4082 97.5174 90.1266 98.4468 88.8188V91.0878H99.7216V82.6001C99.7216 80.9186 99.2441 79.6642 98.3409 78.7566C97.3585 77.7692 95.8975 77.262 94.0653 77.262ZM169.555 77.262C167.696 77.262 166.235 77.7428 164.748 78.4368L165.226 79.5847C166.474 78.944 167.829 78.4901 169.475 78.4901C172.263 78.4901 173.936 79.9049 173.936 82.6541H169.448C165.942 82.6541 163.527 84.2549 163.527 87.084V87.1378C163.527 89.9672 166.235 91.4082 168.757 91.4082C171.333 91.4082 173.007 90.1266 173.936 88.8188V91.0878H175.211V82.6001C175.211 80.919 174.733 79.6642 173.83 78.7566C172.848 77.7692 171.387 77.262 169.555 77.262ZM145.081 77.2627C142.399 77.1558 140.143 78.9175 139.08 81.3459V77.4761H137.779V91.0876H139.08V85.5093C139.08 81.0789 141.815 78.7035 144.949 78.7035H145.081V77.2627ZM146.964 77.4761V91.0876H148.266V77.4761H146.964ZM129.972 78.3568C133.079 78.3568 134.646 80.8926 134.832 83.6418H124.98C125.219 80.626 127.29 78.3568 129.972 78.3568ZM93.8791 83.8281H98.4738V85.9898H98.4731C98.4731 88.472 96.1096 90.18 93.348 90.18C91.2767 90.18 89.4178 89.0325 89.4178 87.0576V87.0037C89.4178 85.1085 91.0109 83.8281 93.8791 83.8281ZM169.369 83.8281H173.963V85.9898C173.963 88.472 171.6 90.18 168.838 90.18C166.767 90.18 164.907 89.0325 164.907 87.0576V87.0037C164.907 85.1085 166.501 83.8281 169.369 83.8281Z" fill="black"/>
</g>
<defs>
<filter id="filter0_d_1_863" x="0" y="0" width="208.5" height="147" filterUnits="userSpaceOnUse" color-interpolation-filters="sRGB">
<feFlood flood-opacity="0" result="BackgroundImageFix"/>
<feColorMatrix in="SourceAlpha" type="matrix" values="0 0 0 0 0 0 0 0 0 0 0 0 0 0 0 0 0 0 127 0" result="hardAlpha"/>
<feOffset/>
<feGaussianBlur stdDeviation="6"/>
<feComposite in2="hardAlpha" operator="out"/>
<feColorMatrix type="matrix" values="0 0 0 0 0 0 0 0 0 0 0 0 0 0 0 0 0 0 0.08 0"/>
<feBlend mode="normal" in2="BackgroundImageFix" result="effect1_dropShadow_1_863"/>
<feBlend mode="normal" in="SourceGraphic" in2="effect1_dropShadow_1_863" result="shape"/>
</filter>
</defs>
</svg>
